<svg width="261" height="260" viewBox="0 0 261 260" fill="none" xmlns="http://www.w3.org/2000/svg">
<g clip-path="url(#clip0_160_10)">
<path fill-rule="evenodd" clip-rule="evenodd" d="M127.216 0.12891C83.7432 2.52403 50.3013 36.9782 52.5178 77.1126V77.0965C53.6425 97.6089 61.3219 114.393 75.6879 125.089C75.0676 125.839 74.4613 126.602 73.8697 127.376C71.6311 128.927 69.6359 131.214 67.8162 133.3C67.1373 134.078 66.4824 134.829 65.849 135.502C58.5521 143.254 51.5467 151.297 44.8163 159.631C37.3577 168.872 30.2392 178.452 23.5086 188.373L23.4924 188.389C22.0363 190.541 20.8553 194.118 23.3468 196.48C24.0425 197.128 24.8677 197.5 25.6766 197.824C37.2776 202.537 48.5299 201.962 59.108 199.884C61.4893 215.89 68.9074 234.885 82.1734 243.363C83.107 243.958 84.0716 244.515 85.064 245.011C84.9728 245.065 84.8828 245.12 84.7944 245.176C81.7527 247.102 78.4039 249.594 78.1936 253.235C78.1803 253.442 78.1608 253.647 78.1418 253.849C78.0422 254.897 77.9486 255.881 78.776 256.763C79.4392 257.459 80.3453 257.847 81.2512 258.155C86.8167 260.096 92.8354 260.13 98.7244 259.919C101.07 259.838 103.449 259.708 105.682 258.964C107.995 258.187 110.94 256.391 111.053 253.704C111.15 251.568 110.309 249.788 109.257 247.975C108.423 246.538 106.227 244.267 103.853 243.267C104.874 242.347 105.821 241.293 106.685 240.127C108.316 237.931 109.463 235.542 110.251 233.041C116.362 234.556 123.947 235.245 129.578 235.514C138.299 235.935 146.712 235.336 155.335 233.314C155.504 233.274 155.672 233.233 155.839 233.191C156.625 235.625 157.755 237.952 159.347 240.094C160.272 241.342 161.29 242.461 162.394 243.425C160.157 244.49 158.134 246.61 157.341 247.975C156.29 249.788 155.448 251.568 155.545 253.704C155.659 256.391 158.603 258.187 160.917 258.964C163.15 259.708 165.528 259.838 167.874 259.919C173.763 260.13 179.782 260.096 185.347 258.155C186.253 257.847 187.159 257.459 187.822 256.763C188.65 255.881 188.556 254.897 188.457 253.849C188.437 253.647 188.418 253.442 188.405 253.235C188.195 249.594 184.846 247.102 181.804 245.176C181.621 245.06 181.432 244.949 181.236 244.843C182.134 244.381 183.009 243.872 183.858 243.331C196.739 235.099 204.106 216.954 206.703 201.255C207.021 199.898 207.297 198.487 207.534 197.021C216.644 198.308 226.199 198.101 236.003 194.118C236.812 193.794 237.637 193.422 238.332 192.774C240.824 190.412 239.643 186.835 238.187 184.683L238.171 184.667C231.44 174.746 224.322 165.166 216.863 155.925C210.133 147.591 203.127 139.548 195.831 131.796C195.199 131.125 194.547 130.377 193.87 129.602L193.868 129.599L193.865 129.596L193.863 129.594C192.994 128.598 192.086 127.556 191.13 126.571C189.599 124.619 187.975 122.743 186.26 120.953C203.429 109.332 211.194 91.9061 209.907 68.4385C207.706 28.3202 170.673 -2.26621 127.216 0.12891Z" fill="#E0634A"/>
<path d="M238.187 184.683C239.643 186.835 240.824 190.412 238.333 192.775C237.637 193.422 236.812 193.794 236.003 194.118C221.425 200.041 207.399 197.613 194.569 194.344C188.89 192.904 183.276 191.318 177.726 189.586C174.717 188.648 171.692 187.645 169.378 185.654C163.068 180.2 163.586 169.293 164.654 159.761C165.77 149.889 166.11 135.276 174.28 126.407C184.117 115.726 190.67 126.31 195.831 131.796C203.127 139.548 210.133 147.591 216.863 155.925C224.322 165.166 231.44 174.746 238.171 184.667L238.187 184.683Z" fill="#A9ACB5"/>
<path d="M23.4924 188.389C22.0363 190.541 20.8553 194.118 23.3468 196.48C24.0425 197.128 24.8677 197.5 25.6766 197.824C40.2538 203.747 54.2811 201.319 67.1108 198.05C72.7897 196.61 78.4039 195.024 83.9531 193.292C86.9623 192.354 89.9879 191.35 92.3014 189.36C98.6114 183.906 98.0934 172.998 97.0256 163.467C95.9581 153.935 95.5696 138.981 87.3994 130.113C77.5625 119.432 71.01 130.016 65.849 135.502C58.5521 143.254 51.5467 151.297 44.8163 159.631C37.3577 168.872 30.2392 178.452 23.5086 188.373L23.4924 188.389Z" fill="#A9ACB5"/>
<path fill-rule="evenodd" clip-rule="evenodd" d="M132.911 98.783C85.8139 98.783 56.9669 137.25 56.9669 178.955C56.9669 184.363 57.464 189.314 58.4341 193.83C58.4354 193.856 58.437 193.882 58.439 193.908C59.6847 210.852 67.2081 233.8 82.1734 243.364C85.1182 245.241 88.37 246.73 91.8324 247.183L91.816 247.199C97.8995 247.992 103.028 245.063 106.685 240.127C108.356 237.878 109.519 235.426 110.307 232.86C117.709 233.715 125.778 233.984 134.448 233.735C142.27 233.509 149.31 233.129 155.64 232.548C156.429 235.216 157.616 237.764 159.347 240.095C163.004 245.031 168.133 247.96 174.216 247.167L174.2 247.151C177.662 246.698 180.914 245.209 183.858 243.331C196.739 235.1 204.106 216.955 206.704 201.255C208.148 195.09 208.725 187.816 208.725 179.246C208.725 137.542 180.008 98.783 132.911 98.783Z" fill="#BFC2D0"/>
<path d="M86.5261 194.571C85.9276 163.305 100.408 143.027 132.571 143.027C164.735 143.027 179.199 164.842 179.199 193.325C179.199 211.984 173.811 228.96 155.335 233.314C146.712 235.336 138.299 235.935 129.578 235.515C121.457 235.126 109.274 233.864 103.304 230.514C90.2636 223.199 86.8012 208.537 86.5422 194.571H86.5261Z" fill="#F0CEA9"/>
<path d="M52.5179 77.1126C50.3014 36.9782 83.7433 2.52403 127.216 0.12891C170.673 -2.26621 207.706 28.3202 209.907 68.4385C212.107 108.557 187.855 131.019 135.386 137.007C82.0123 143.092 54.7183 117.231 52.5179 77.0965V77.1126Z" fill="#BFC2D0"/>
<path d="M52.4695 76.0451C52.4695 75.4138 52.4048 74.7989 52.4048 74.1679C52.3887 72.4363 52.4373 70.7047 52.5343 68.9731C52.6312 67.2415 52.8255 65.5582 53.0683 63.8591C53.3109 62.1598 53.6021 60.509 53.9741 58.8422C54.3465 57.1753 54.7669 55.5571 55.2523 53.9388C55.7377 52.3203 56.2718 50.7346 56.8703 49.1647C57.4688 47.5948 58.1159 46.0575 58.8278 44.5362C59.5397 43.0149 60.3002 41.5262 61.1091 40.0535C61.9182 38.5809 62.7918 37.1405 63.714 35.7326C64.6362 34.3247 65.6068 32.949 66.6099 31.5898C67.613 30.2302 68.6972 28.9196 69.7972 27.6409C70.8973 26.3625 72.0623 25.1164 73.2596 23.9027C74.4567 22.6889 75.7026 21.5237 76.9808 20.3909C78.2589 19.2581 79.5854 18.1576 80.9445 17.1057C82.3035 16.0538 83.7111 15.0342 85.151 14.0632C86.5909 13.0922 88.0794 12.1536 89.584 11.2797C91.0886 10.4058 92.6419 9.5643 94.2273 8.77133C95.8131 7.97835 97.4308 7.23392 99.0649 6.55423C100.699 5.87451 102.382 5.21102 104.08 4.62841C105.779 4.0458 107.527 3.49559 109.274 3.02626C111.021 2.55695 112.817 2.12001 114.613 1.74779C116.409 1.37558 118.269 1.05191 120.098 0.809165C121.926 0.566416 123.835 0.356034 125.712 0.210385C126.213 0.178018 126.698 0.145652 127.2 0.113285C170.657 -2.28184 207.69 28.3044 209.891 68.4227C210.036 71.1415 210.052 73.8603 209.972 76.5791C209.875 79.3627 209.567 82.0815 209.163 84.8651C209.163 84.9782 209.065 85.4961 209.049 85.4961C208.968 85.4961 208.855 85.3666 208.807 85.3019C208.709 85.1238 208.467 84.7356 208.37 84.5736L207.868 83.7484L206.881 82.1462C206.25 81.1104 205.603 80.0748 204.972 79.039C204.147 77.6797 203.354 76.304 202.529 74.9284C201.542 73.2615 200.539 71.6108 199.488 69.9764C198.307 68.1315 197.077 66.319 195.783 64.5549C194.391 62.6616 192.935 60.8166 191.366 59.0364C189.748 57.1917 188.017 55.4437 186.189 53.8094C184.36 52.1747 182.305 50.6051 180.186 49.2617C178.067 47.9185 175.705 46.6887 173.31 45.7663C170.786 44.7952 168.165 44.0833 165.496 43.6948C148.67 41.2025 141.583 58.6805 128.268 60.0075C118.237 61.0108 111.442 57.4668 103.53 51.8349C97.7867 47.7407 90.5223 46.1869 83.7111 48.4687C76.5762 50.8638 69.6355 57.1917 65.5907 63.4382C61.6753 69.4907 58.294 74.4268 55.6891 82.211C54.5729 85.5283 53.9905 89.0726 53.958 89.0888C53.7638 88.0368 52.9711 82.7125 52.7932 80.9809C52.6312 79.4113 52.4856 77.8253 52.4695 76.2554C52.4695 76.1907 52.4695 76.1098 52.4695 76.0451Z" fill="#A9ACB5"/>
<path d="M78.1127 109.609C84.9725 113.396 93.3856 111.276 96.9125 104.884C100.439 98.4912 97.7377 90.2378 90.8776 86.4509C84.0178 82.664 75.6047 84.784 72.0778 91.1764C68.5509 97.5687 71.2526 105.822 78.1127 109.609Z" fill="#DF8040"/>
<path d="M181.609 102.586C174.75 106.373 166.336 104.252 162.809 97.8601C159.282 91.4678 161.984 83.2143 168.844 79.4274C175.704 75.6405 184.117 77.7606 187.644 84.1529C191.171 90.5453 188.469 98.7987 181.609 102.586Z" fill="#DF8040"/>
<path d="M101.074 86.4714C106.159 86.1826 109.987 80.7691 109.625 74.3799C109.262 67.9906 104.846 63.0454 99.7607 63.3343C94.6756 63.6232 90.8476 69.0366 91.2103 75.4259C91.573 81.8148 95.9891 86.7603 101.074 86.4714Z" fill="#332F35"/>
<path d="M157.37 82.2344C162.454 81.9455 166.283 76.5318 165.92 70.1428C165.557 63.7536 161.141 58.8084 156.056 59.0972C150.971 59.3861 147.143 64.7996 147.506 71.1888C147.868 77.5778 152.285 82.5232 157.37 82.2344Z" fill="#332F35"/>
<path d="M130.775 88.8133C135.354 88.8781 139.755 90.7391 139.625 91.8233C139.819 93.0534 134.998 99.3002 130.743 99.1543C126.488 99.0248 121.99 92.8914 121.796 91.6616C121.78 90.8847 126.326 88.7647 130.759 88.8133H130.775Z" fill="#867F41"/>
<path d="M130.484 88.7161C135.063 88.6353 139.901 90.3668 139.804 91.4513C140.03 92.6811 135.144 96.6461 130.873 96.6461C126.618 96.6461 121.942 93.0857 121.715 91.8395C121.667 91.0629 126.019 88.7972 130.468 88.7161H130.484Z" fill="#151316"/>
<path d="M130.646 94.931C135.241 94.931 140.094 92.0827 140.03 91.5648C140.111 90.1407 135.613 82.6964 130.695 82.7612C126.197 82.8098 121.618 90.1082 121.537 91.5325C121.57 92.7137 126.731 94.931 130.646 94.931Z" fill="#FBDD00"/>
<path d="M101.993 242.765C96.9612 242.36 89.0333 242.489 84.7945 245.176C81.7528 247.102 78.404 249.594 78.1936 253.235C78.1125 254.514 77.7891 255.711 78.776 256.763C79.4393 257.459 80.3454 257.847 81.2512 258.155C86.8168 260.096 92.8355 260.13 98.7245 259.919C101.071 259.838 103.449 259.708 105.682 258.964C107.995 258.187 110.94 256.391 111.053 253.704C111.15 251.568 110.309 249.788 109.257 247.975C108.205 246.163 104.986 243.023 101.977 242.781L101.993 242.765Z" fill="#E0634A"/>
<path d="M164.606 242.765C169.637 242.36 177.565 242.489 181.804 245.176C184.846 247.102 188.195 249.594 188.405 253.235C188.486 254.514 188.809 255.711 187.822 256.763C187.159 257.459 186.253 257.847 185.347 258.155C179.782 260.096 173.763 260.13 167.874 259.919C165.528 259.838 163.15 259.708 160.917 258.964C158.603 258.187 155.659 256.391 155.545 253.704C155.448 251.568 156.29 249.788 157.341 247.975C158.393 246.163 161.613 243.023 164.622 242.781L164.606 242.765Z" fill="#E0634A"/>
</g>
<defs>
<clipPath id="clip0_160_10">
<rect width="260" height="260" fill="white" transform="translate(0.326172)"/>
</clipPath>
</defs>
</svg>
