<svg width="96" height="115" viewBox="0 0 96 115" fill="none" xmlns="http://www.w3.org/2000/svg">
<g clip-path="url(#clip0_3_11458)">
<path d="M94.6364 81.5121C95.2792 82.4583 95.7808 84.0195 94.6991 85.0603C94.4013 85.3442 94.0407 85.5019 93.6802 85.6596C87.3311 88.2616 81.2173 87.1892 75.6207 85.77C73.1438 85.1392 70.6983 84.4453 68.2684 83.6883C66.9516 83.2783 65.6348 82.8368 64.6315 81.9694C61.8724 79.5882 62.1075 74.7942 62.5778 70.6152C63.0481 66.4362 63.2206 59.8759 66.7792 55.9808C71.0745 51.2971 73.9277 55.9335 76.1851 58.3462C79.3674 61.7368 82.4244 65.2692 85.3559 68.9278C88.601 72.9806 91.7049 77.1754 94.6521 81.5279L94.6364 81.5121Z" fill="#B6BAC9"/>
<path d="M66.7322 108.904C68.2371 108.699 69.6637 108.053 70.9492 107.233C77.4706 103.038 80.7627 92.9767 81.2957 85.5491C81.3584 84.5872 80.6373 84.0668 79.8848 83.641C78.8972 83.0733 77.7214 82.7263 76.6241 82.4267C74.3823 81.8432 72.0152 81.7013 69.7107 82.0798C68.6604 82.2533 67.6257 82.5371 66.6381 82.9156C64.5218 83.7514 62.6406 84.9657 61.1827 86.7476C59.8501 88.3877 58.9252 90.3432 58.4706 92.3932C58.3609 92.9294 58.2668 93.4656 58.2198 94.0175C57.8435 97.9442 57.7338 102.391 60.2421 105.798C61.8411 107.958 64.0671 109.251 66.7322 108.904Z" fill="#BFC2D0"/>
<path d="M1.0159 83.1364C0.373158 84.0826 -0.128492 85.6438 0.953191 86.6846C1.25105 86.9684 1.61161 87.1261 1.97217 87.2838C8.32118 89.8859 14.435 88.8135 20.0316 87.3942C22.5085 86.7634 24.954 86.0696 27.3839 85.3126C28.7007 84.9026 30.0175 84.461 31.0208 83.5937C33.7799 81.2125 33.5448 76.4184 33.0745 72.2394C32.5885 67.9027 32.4317 61.5002 28.8732 57.605C24.5778 52.9214 21.7246 57.5577 19.4672 59.9705C16.2849 63.361 13.2279 66.8935 10.2964 70.5521C7.05138 74.6049 3.94742 78.7997 1.00022 83.1521L1.0159 83.1364Z" fill="#B6BAC9"/>
<path d="M30.8173 108.92C29.3124 108.715 27.8858 108.069 26.6003 107.249C20.0789 103.054 16.7868 92.9926 16.2538 85.565C16.1911 84.603 16.9122 84.0826 17.6647 83.6569C18.6523 83.0891 19.8281 82.7422 20.9254 82.4426C23.1672 81.8591 25.5343 81.7172 27.8388 82.0957C28.8891 82.2691 29.9238 82.553 30.9114 82.9315C33.0277 83.7673 34.9089 84.9815 36.3668 86.7635C37.6994 88.4036 38.6243 90.359 39.0789 92.4091C39.1886 92.9453 39.2827 93.4815 39.3297 94.0334C39.706 97.9601 39.8157 102.407 37.3074 105.813C35.7084 107.974 33.4824 109.267 30.8173 108.92Z" fill="#BFC2D0"/>
<path d="M15.6104 79.0049C15.6104 60.7119 28.183 43.854 48.7349 43.854C69.2869 43.854 81.7968 60.8539 81.7968 79.1311C81.7968 97.4083 75.824 102.265 49.409 103.022C28.5122 103.622 15.626 97.2821 15.626 79.0049H15.6104Z" fill="#BFC2D0"/>
<path d="M13.6667 34.3449C12.7104 16.7458 27.2896 1.63831 46.2426 0.597505C65.1956 -0.443303 81.3424 12.961 82.2987 30.5602C83.255 48.1593 72.6889 57.9996 49.8012 60.6332C26.5371 63.2983 14.6229 51.9598 13.6667 34.3607V34.3449Z" fill="#BFC2D0"/>
<path d="M35.2536 106.996C33.0589 106.823 29.5944 106.87 27.7602 108.053C26.4277 108.904 24.9698 109.992 24.8757 111.585C24.8444 112.137 24.7033 112.673 25.1266 113.131C25.4087 113.43 25.8163 113.604 26.2082 113.746C28.6381 114.597 31.2561 114.613 33.8271 114.518C34.846 114.487 35.8964 114.424 36.8683 114.093C37.8716 113.746 39.1571 112.973 39.2041 111.79C39.2511 110.86 38.8749 110.071 38.4203 109.283C37.9657 108.494 36.5548 107.106 35.2536 106.996Z" fill="#868686"/>
<path d="M62.5465 106.996C64.7412 106.823 68.2058 106.87 70.0399 108.053C71.3724 108.904 72.8303 109.992 72.9244 111.585C72.9558 112.137 73.0969 112.673 72.6736 113.131C72.3914 113.43 71.9838 113.604 71.5919 113.746C69.162 114.597 66.544 114.613 63.9731 114.518C62.9541 114.487 61.9038 114.424 60.9318 114.093C59.9285 113.746 58.6431 112.973 58.596 111.79C58.549 110.86 58.9252 110.071 59.3798 109.283C59.8345 108.494 61.2454 107.106 62.5465 106.996Z" fill="#868686"/>
<path d="M34.8437 38.4499C37.0566 38.3235 38.7224 35.9512 38.5643 33.1513C38.4063 30.3513 36.4843 28.184 34.2714 28.3104C32.0585 28.4368 30.3928 30.8091 30.5508 33.609C30.7089 36.4089 32.6309 38.5763 34.8437 38.4499Z" fill="#332F35"/>
<path d="M59.3897 36.5963C61.6025 36.4699 63.2683 34.0977 63.1102 31.2978C62.9522 28.4978 61.0302 26.3305 58.8173 26.4569C56.6044 26.5833 54.9387 28.9556 55.0967 31.7555C55.2548 34.5554 57.1768 36.7227 59.3897 36.5963Z" fill="#332F35"/>
<path d="M47.7795 39.6436C49.7861 39.6751 51.6986 40.4951 51.6359 40.9682C51.7143 41.5044 49.6137 44.2483 47.7638 44.1853C45.914 44.1222 43.9544 41.4413 43.8604 40.9051C43.8604 40.5582 45.8356 39.6278 47.7638 39.6593L47.7795 39.6436Z" fill="#867F41"/>
<path d="M47.6388 39.6118C49.6297 39.5803 51.746 40.3372 51.699 40.8103C51.7931 41.3465 49.6611 43.0812 47.8112 43.0812C45.9614 43.0812 43.9234 41.5199 43.8137 40.9838C43.798 40.6368 45.6949 39.6433 47.6231 39.6118H47.6388Z" fill="#151316"/>
<path d="M47.7171 42.34C49.7237 42.34 51.8401 41.0942 51.8087 40.8734C51.8401 40.2426 49.8805 36.9941 47.7485 37.0098C45.7889 37.0256 43.798 40.2269 43.751 40.8577C43.751 41.3781 46.0084 42.34 47.7171 42.34Z" fill="#FBDD00"/>
</g>
<defs>
<clipPath id="clip0_3_11458">
<rect width="95" height="114" fill="white" transform="translate(0.326172 0.53418)"/>
</clipPath>
</defs>
</svg>
