<svg width="124" height="148" viewBox="0 0 124 148" fill="none" xmlns="http://www.w3.org/2000/svg">
<g clip-path="url(#clip0_3_11418)">
<path d="M122.413 104.955C123.232 106.17 123.893 108.189 122.492 109.53C122.098 109.893 121.626 110.114 121.185 110.287C112.965 113.632 105.044 112.259 97.8006 110.414C94.5882 109.593 91.423 108.71 88.2894 107.732C86.5887 107.211 84.888 106.643 83.581 105.507C80.0222 102.431 80.3056 96.2625 80.9198 90.8672C81.5339 85.4718 81.7386 77.0159 86.3525 72.0149C91.9112 65.9728 95.6117 71.9676 98.5249 75.0597C102.635 79.4454 106.603 83.9889 110.398 88.7059C114.603 93.9277 118.618 99.3546 122.429 104.955H122.413Z" fill="#B6BAC9"/>
<path d="M86.3049 140.277C88.2575 140.025 90.0999 139.189 91.7534 138.116C100.21 132.705 104.445 119.737 105.154 110.145C105.249 108.899 104.288 108.236 103.327 107.684C102.052 106.959 100.524 106.501 99.1072 106.123C96.194 105.365 93.1391 105.192 90.1629 105.665C88.8087 105.886 87.4702 106.249 86.1789 106.754C83.4232 107.842 80.9981 109.404 79.1242 111.707C77.4078 113.805 76.211 116.33 75.6284 118.996C75.4709 119.69 75.3607 120.384 75.2977 121.094C74.8253 126.142 74.6678 131.9 77.9117 136.286C79.9746 139.078 82.872 140.735 86.3049 140.277Z" fill="#BFC2D0"/>
<path d="M1.2242 107.053C0.405354 108.268 -0.256021 110.287 1.14546 111.628C1.53914 111.991 2.01155 112.212 2.45247 112.385C10.6724 115.73 18.5932 114.357 25.8368 112.512C29.0492 111.691 32.2143 110.808 35.348 109.83C37.0487 109.309 38.7494 108.741 40.0564 107.605C43.6152 104.529 43.3317 98.3607 42.7176 92.9653C42.1035 87.5699 41.8988 79.1141 37.2849 74.1131C31.7262 68.0709 28.0256 74.0658 25.1124 77.1578C21.0025 81.5435 17.0342 86.087 13.2392 90.804C9.03472 96.0258 5.01923 101.453 1.20845 107.053H1.2242Z" fill="#B6BAC9"/>
<path d="M39.804 140.293C37.8514 140.041 36.009 139.204 34.3555 138.132C25.8994 132.721 21.6634 119.753 20.9548 110.161C20.8603 108.915 21.8209 108.252 22.7815 107.7C24.057 106.974 25.5844 106.517 27.0017 106.138C29.9149 105.381 32.9698 105.207 35.946 105.681C37.3002 105.901 38.6387 106.264 39.93 106.769C42.6857 107.858 45.1107 109.42 46.9846 111.723C48.7011 113.821 49.8978 116.345 50.4805 119.011C50.6379 119.705 50.7482 120.4 50.8112 121.109C51.2836 126.158 51.441 131.916 48.1972 136.302C46.1343 139.094 43.2368 140.75 39.804 140.293Z" fill="#BFC2D0"/>
<path d="M20.1202 101.721C20.1202 78.1359 36.4027 56.3967 62.9994 56.3967C89.5961 56.3967 105.8 78.3095 105.8 101.894C105.8 125.479 98.068 131.711 63.8655 132.705C36.8121 133.494 20.1202 125.306 20.1202 101.737V101.721Z" fill="#BFC2D0"/>
<path d="M17.6011 44.123C16.3571 21.453 35.2377 1.95397 59.7716 0.613015C84.3055 -0.743713 105.202 16.5467 106.446 39.2325C107.69 61.9182 93.9899 74.6178 64.3855 77.9939C34.2614 81.433 18.8451 66.8088 17.6011 44.123Z" fill="#BFC2D0"/>
<path d="M17.5852 43.5236C17.5852 43.1765 17.5537 42.8137 17.5537 42.4666C17.5537 41.4885 17.5537 40.5104 17.6324 39.5323C17.7112 38.5542 17.7899 37.6076 17.9316 36.6453C18.0734 35.6829 18.2308 34.7522 18.4355 33.8056C18.6403 32.8591 18.8765 31.944 19.1599 31.029C19.4434 30.114 19.7425 29.2148 20.0732 28.3314C20.4039 27.4479 20.7819 26.5645 21.1755 25.7126C21.5692 24.8607 22.0101 24.0088 22.4668 23.1726C22.9234 22.3365 23.4116 21.5319 23.9313 20.7274C24.4509 19.9228 25.0021 19.1498 25.5689 18.3925C26.1358 17.6353 26.75 16.878 27.3641 16.1681C27.9782 15.4582 28.6396 14.7325 29.3167 14.0542C29.9939 13.3758 30.7025 12.6974 31.4111 12.0664C32.1197 11.4354 32.8913 10.8043 33.6472 10.2048C34.403 9.60535 35.2061 9.03741 36.025 8.48526C36.8438 7.9331 37.6784 7.41249 38.5287 6.90766C39.3791 6.40284 40.2609 5.92956 41.1428 5.48783C42.0246 5.04611 42.9537 4.62016 43.867 4.22576C44.7803 3.83136 45.7409 3.46851 46.7015 3.13722C47.662 2.80593 48.6383 2.50618 49.6304 2.22222C50.6225 1.93825 51.6303 1.70161 52.6538 1.49652C53.6774 1.29144 54.7167 1.10213 55.756 0.960143C56.7953 0.81816 57.8661 0.707729 58.9369 0.628849C59.2203 0.613073 59.488 0.597297 59.7715 0.581521C84.3053 -0.775208 105.202 16.5152 106.446 39.201C106.524 40.7312 106.54 42.2773 106.493 43.8075C106.446 45.3851 106.257 46.9154 106.036 48.493C106.036 48.5561 105.989 48.8558 105.973 48.8558C105.926 48.8558 105.863 48.777 105.832 48.7454C105.769 48.635 105.643 48.4299 105.58 48.3352L105.296 47.8619L104.745 46.9469C104.383 46.3632 104.021 45.7795 103.658 45.18C103.186 44.407 102.745 43.634 102.288 42.861C101.737 41.9144 101.155 40.9836 100.572 40.0529C99.9106 39.0117 99.2178 37.9862 98.4777 36.9923C97.6903 35.9196 96.8715 34.8784 95.9896 33.8687C95.1078 32.859 94.1 31.8336 93.0607 30.9186C92.0214 30.0036 90.8719 29.1044 89.6751 28.3471C88.4783 27.5899 87.1398 26.8958 85.7856 26.3594C84.4313 25.823 82.8881 25.4128 81.3764 25.192C71.8809 23.7721 67.8812 33.6636 60.3541 34.4209C54.6852 34.9888 50.8587 32.9853 46.3865 29.7985C43.1426 27.4795 39.0484 26.6118 35.2061 27.9054C31.1749 29.2621 27.2539 32.8433 24.9706 36.3613C22.766 39.7847 20.8606 42.577 19.3804 46.9785C18.7505 48.8558 18.4198 50.8594 18.4041 50.8594C18.2938 50.2757 17.8529 47.2625 17.7584 46.2686C17.6639 45.3851 17.5852 44.4859 17.5695 43.6024C17.5695 43.5551 17.5695 43.5236 17.5695 43.4762L17.5852 43.5236Z" fill="#A9ACB5"/>
<path d="M45.5355 137.801C42.701 137.564 38.2131 137.643 35.8353 139.157C34.1189 140.246 32.2292 141.65 32.1033 143.717C32.056 144.442 31.8828 145.121 32.4339 145.704C32.8119 146.099 33.3315 146.32 33.8354 146.493C36.9691 147.582 40.3704 147.613 43.6931 147.487C45.0158 147.44 46.3701 147.361 47.6141 146.951C48.9211 146.509 50.5745 145.499 50.6532 143.985C50.7005 142.77 50.2281 141.76 49.6454 140.751C49.0628 139.741 47.2361 137.943 45.5355 137.816V137.801Z" fill="#E0634A"/>
<path d="M80.8876 137.801C83.7221 137.564 88.21 137.643 90.5878 139.157C92.3042 140.246 94.1939 141.65 94.3199 143.717C94.3671 144.442 94.5403 145.121 93.9892 145.704C93.6112 146.099 93.0916 146.32 92.5877 146.493C89.454 147.582 86.0527 147.613 82.73 147.487C81.4073 147.44 80.0531 147.361 78.809 146.951C77.502 146.509 75.8486 145.499 75.7699 143.985C75.7226 142.77 76.195 141.76 76.7777 140.751C77.3603 139.741 79.187 137.943 80.8876 137.816V137.801Z" fill="#E0634A"/>
<path d="M45.0259 49.5407C47.8913 49.3777 50.0482 46.3191 49.8436 42.7091C49.639 39.0991 47.1503 36.3048 44.285 36.4678C41.4196 36.6308 39.2627 39.6894 39.4673 43.2994C39.6719 46.9094 42.1606 49.7037 45.0259 49.5407Z" fill="#332F35"/>
<path d="M76.7896 47.1411C79.655 46.9781 81.8119 43.9195 81.6073 40.3095C81.4027 36.6995 78.914 33.9051 76.0486 34.0681C73.1833 34.2311 71.0263 37.2898 71.231 40.8998C71.4356 44.5098 73.9243 47.3041 76.7896 47.1411Z" fill="#332F35"/>
<path d="M61.7554 51.0801C64.3379 51.1116 66.8259 52.1686 66.7472 52.7839C66.8574 53.478 64.1332 57.0118 61.7396 56.9329C59.3303 56.8541 56.8108 53.3991 56.7006 52.705C56.7006 52.2633 59.2516 51.0643 61.7554 51.0959V51.0801Z" fill="#867F41"/>
<path d="M61.5817 51.017C64.1642 50.9697 66.9042 51.9478 66.8412 52.5631C66.9672 53.2572 64.2115 55.4974 61.8022 55.4974C59.3929 55.4974 56.7631 53.4781 56.6371 52.7839C56.6056 52.3422 59.0622 51.0644 61.5817 51.017Z" fill="#151316"/>
<path d="M61.6766 54.5351C64.2749 54.5351 66.9991 52.9259 66.9676 52.642C67.0149 51.8374 64.4796 47.641 61.7081 47.6725C59.1728 47.7041 56.5903 51.8216 56.5431 52.6262C56.5588 53.2888 59.472 54.5508 61.6924 54.5508L61.6766 54.5351Z" fill="#FBDD00"/>
</g>
<defs>
<clipPath id="clip0_3_11418">
<rect width="123" height="147" fill="white" transform="translate(0.326172 0.53418)"/>
</clipPath>
</defs>
</svg>
