<svg width="64" height="90" viewBox="0 0 64 90" fill="none" xmlns="http://www.w3.org/2000/svg">
<mask id="mask0_3_11407" style="mask-type:alpha" maskUnits="userSpaceOnUse" x="0" y="0" width="64" height="90">
<path d="M45.7858 6.82439C41.4666 2.88744 36.8072 0.53418 32.3258 0.53418C17.6016 0.53418 0.914062 25.6924 0.914062 50.2695C0.914062 52.8217 1.12086 55.2404 1.44283 57.5753C4.21492 77.7129 18.2507 89.5342 32.3258 89.5342C48.0317 89.5342 63.7376 74.8466 63.7376 50.2695C63.7376 33.1736 55.6595 15.8186 45.7858 6.82439Z" fill="#E1DCCF"/>
</mask>
<g mask="url(#mask0_3_11407)">
<path d="M45.7858 6.82439C41.4666 2.88744 36.8072 0.53418 32.3258 0.53418C17.6016 0.53418 0.914062 25.6924 0.914062 50.2695C0.914062 52.8217 1.12086 55.2404 1.44283 57.5753C4.21492 77.7129 18.2507 89.5342 32.3258 89.5342C48.0317 89.5342 63.7376 74.8466 63.7376 50.2695C63.7376 33.1736 55.6595 15.8186 45.7858 6.82439Z" fill="#9FE4FF"/>
<path d="M22.6024 41.4639C21.0187 40.4218 19.3102 39.7988 17.6671 39.7988C12.2682 39.7988 6.14941 46.4584 6.14941 52.9641C6.14941 53.6396 6.22524 54.2799 6.34329 54.898C7.35973 60.2285 12.5062 63.3577 17.6671 63.3577C23.4259 63.3577 34.9435 63.1323 34.9435 56.6266C34.9435 52.1012 26.2228 43.8447 22.6024 41.4639Z" fill="#009DDC"/>
<path d="M4.22164 55.801L-0.88346 48.2442L1.79608 59.8764L11.8362 56.4071L9.48398 68.0507L23.9684 58.1984L14.5176 62.5994L14.3509 50.7053L4.22164 55.801Z" fill="#404040"/>
<path d="M47.0935 78.8259C47.873 78.2983 50.6194 75.3121 50.874 74.5737C51.7102 72.1476 47.0818 70.5499 43.7468 69.4003C43.4005 69.2809 43.0606 69.2019 42.7255 69.1457C39.8355 68.6606 37.4343 70.4204 36.6349 72.7395C35.7428 75.3274 34.0743 80.5429 37.4093 81.6924C39.7291 82.4921 45.3123 80.0321 47.0935 78.8259Z" fill="#009DDC"/>
<path d="M41.674 9.94181C40.5223 8.96863 39.2798 8.38693 38.0847 8.38693C34.1583 8.38693 29.7083 14.6058 29.7083 20.681C29.7083 21.3119 29.7634 21.9098 29.8493 22.487C30.5885 27.4648 37.9207 37.181 41.674 37.181C45.8623 37.181 50.6494 30.1764 50.6494 24.1012C50.6494 19.8753 44.3071 12.1651 41.674 9.94181Z" fill="#009DDC"/>
<path d="M21.4813 22.2721L11.3846 27.2798L21.4813 14.7606L29.8951 31.0356L33.2607 11.0049L41.6746 22.2721L45.0401 16.0126L51.7712 19.7683L58.5023 13.5087L53.454 26.0279L46.7229 21.0202L43.3573 31.0356L34.9435 18.5164L31.5779 39.799L21.4813 22.2721Z" fill="#404040"/>
<path d="M45.794 69.8702L31.3572 67.1273L49.7862 73.6975L47.0731 58.5247L57.6503 67.4504L64.1919 48.0631L55.8538 61.6732L41.7731 48.8422L45.794 69.8702Z" fill="#404040"/>
</g>
</svg>
