<svg width="159" height="190" viewBox="0 0 159 190" fill="none" xmlns="http://www.w3.org/2000/svg">
<g clip-path="url(#clip0_3_11437)">
<path d="M157.168 134.79C158.232 136.359 159.077 138.963 157.278 140.672C156.777 141.143 156.167 141.41 155.588 141.661C145.013 145.974 134.845 144.202 125.537 141.833C121.423 140.782 117.34 139.637 113.319 138.382C111.145 137.708 108.939 136.97 107.265 135.527C102.682 131.574 103.057 123.637 103.839 116.704C104.637 109.52 104.903 98.9007 110.816 92.4537C117.95 84.6892 122.705 92.391 126.444 96.3752C131.732 102.006 136.816 107.857 141.697 113.912C147.109 120.626 152.256 127.59 157.153 134.806L157.168 134.79Z" fill="#A9ACB5"/>
<path d="M110.77 180.201C113.273 179.872 115.635 178.789 117.778 177.425C128.635 170.476 134.094 153.786 134.986 141.472C135.096 139.872 133.875 139.01 132.639 138.304C130.997 137.363 129.026 136.782 127.211 136.296C123.472 135.324 119.546 135.088 115.729 135.716C113.977 135.998 112.256 136.469 110.613 137.112C107.078 138.508 103.965 140.516 101.556 143.48C99.35 146.194 97.8013 149.425 97.0504 152.845C96.8626 153.739 96.7062 154.633 96.628 155.527C96.0179 162.021 95.8302 169.409 99.9913 175.056C102.651 178.648 106.358 180.766 110.785 180.201H110.77Z" fill="#BFC2D0"/>
<path d="M1.48374 137.488C0.419982 139.057 -0.424771 141.661 1.37424 143.37C1.87483 143.841 2.48493 144.108 3.06374 144.359C13.6388 148.672 23.8071 146.9 33.115 144.531C37.2293 143.48 41.3123 142.335 45.3327 141.08C47.5071 140.406 49.7129 139.668 51.3867 138.225C55.9703 134.272 55.5948 126.335 54.8127 119.402C54.0305 112.469 53.7489 101.599 47.8356 95.1517C40.7022 87.3872 35.9465 95.089 32.2077 99.0732C26.9202 104.704 21.836 110.555 16.9552 116.61C11.5426 123.324 6.39582 130.288 1.49939 137.504L1.48374 137.488Z" fill="#A9ACB5"/>
<path d="M51.0426 180.232C48.5396 179.903 46.1775 178.821 44.0343 177.456C33.1777 170.507 27.7181 153.817 26.8264 141.504C26.7169 139.904 27.9371 139.041 29.1729 138.335C30.8155 137.394 32.7866 136.814 34.6012 136.327C38.34 135.355 42.2666 135.12 46.0836 135.747C47.8357 136.029 49.5565 136.5 51.1991 137.143C54.7345 138.539 57.8476 140.547 60.2567 143.512C62.4624 146.225 64.0111 149.456 64.762 152.876C64.9497 153.77 65.1062 154.664 65.1844 155.558C65.7945 162.052 65.9822 169.44 61.821 175.087C59.1616 178.679 55.4541 180.797 51.027 180.232H51.0426Z" fill="#BFC2D0"/>
<path d="M25.7469 130.618C25.7469 100.297 46.6624 72.3289 80.8279 72.3289C114.993 72.3289 135.815 100.517 135.815 130.822C135.815 161.127 125.881 169.158 81.9543 170.429C47.2099 171.433 25.7626 160.923 25.7626 130.602L25.7469 130.618Z" fill="#BFC2D0"/>
<path d="M22.5239 56.5801C20.9127 27.42 45.1758 2.36949 76.6976 0.628348C108.219 -1.11279 135.064 21.1299 136.659 50.2901C138.255 79.4502 120.672 95.7793 82.6265 100.14C43.9243 104.563 24.1196 85.756 22.5239 56.5958V56.5801Z" fill="#BFC2D0"/>
<path d="M22.4931 55.8115C22.4931 55.3566 22.4462 54.9017 22.4462 54.4468C22.4462 53.192 22.4618 51.9214 22.54 50.6665C22.6182 49.4117 22.7434 48.1881 22.9155 46.949C23.0876 45.7098 23.3066 44.5176 23.5725 43.3098C23.8384 42.102 24.1357 40.9256 24.4955 39.7491C24.8553 38.5727 25.2307 37.4276 25.6687 36.2825C26.1068 35.1374 26.5761 34.0237 27.0923 32.91C27.6085 31.7963 28.1561 30.714 28.7505 29.6474C29.345 28.5807 29.9707 27.5298 30.6434 26.5102C31.3161 25.4906 32.0044 24.4867 32.7396 23.4985C33.4749 22.5102 34.2414 21.5534 35.0549 20.6279C35.8683 19.7025 36.6975 18.7927 37.5578 17.9143C38.4182 17.0359 39.3256 16.1731 40.2642 15.3575C41.2028 14.5418 42.1571 13.7261 43.1426 12.9732C44.1281 12.2203 45.145 11.4673 46.1931 10.7615C47.2412 10.0556 48.305 9.38111 49.4 8.73798C50.4951 8.09486 51.6214 7.48311 52.7634 6.91841C53.9054 6.35372 55.0786 5.80471 56.2676 5.30276C57.4565 4.80081 58.6767 4.33023 59.9125 3.90671C61.1483 3.48319 62.4155 3.09104 63.667 2.73027C64.9184 2.36949 66.2481 2.07146 67.5466 1.80479C68.845 1.53813 70.1903 1.30284 71.5357 1.11461C72.881 0.926381 74.242 0.785207 75.6186 0.691092C75.9784 0.65972 76.3382 0.644034 76.698 0.628348C108.22 -1.11279 135.064 21.1299 136.66 50.2901C136.769 52.2665 136.785 54.2429 136.707 56.2194C136.644 58.2428 136.41 60.2193 136.112 62.2428C136.112 62.3212 136.05 62.6977 136.034 62.6977C135.972 62.6977 135.893 62.6035 135.862 62.5565C135.784 62.4153 135.612 62.1487 135.533 62.0232L135.158 61.4271L134.438 60.2663C133.985 59.5134 133.515 58.7605 133.046 58.0076C132.452 57.0193 131.873 56.0154 131.278 55.0272C130.559 53.8194 129.824 52.6116 129.073 51.4195C128.212 50.0862 127.321 48.7685 126.398 47.4823C125.396 46.1019 124.333 44.7529 123.206 43.4824C122.033 42.1491 120.782 40.8628 119.452 39.6864C118.122 38.5099 116.636 37.3648 115.103 36.3766C113.57 35.3884 111.849 34.51 110.113 33.8355C108.376 33.161 106.39 32.612 104.45 32.3297C92.2477 30.5101 87.1167 43.2157 77.4489 44.1882C70.1747 44.9255 65.247 42.3373 59.5058 38.2433C55.3446 35.2629 50.0727 34.1335 45.145 35.7962C39.967 37.5374 34.9297 42.1334 32.0044 46.6823C29.1573 51.0744 26.7169 54.6664 24.824 60.3291C24.0262 62.7447 23.5881 65.3172 23.5725 65.3172C23.4317 64.5643 22.8529 60.6899 22.7278 59.4193C22.6182 58.2899 22.5087 57.1291 22.4931 55.9841C22.4931 55.937 22.4931 55.8743 22.4931 55.8272V55.8115Z" fill="#A9ACB5"/>
<path d="M58.411 177.017C54.7661 176.719 49.0092 176.813 45.9431 178.774C43.7374 180.17 41.3126 181.973 41.1562 184.624C41.1092 185.55 40.8746 186.428 41.5786 187.181C42.0635 187.683 42.7205 187.965 43.3776 188.201C47.4136 189.613 51.7782 189.628 56.0488 189.471C57.754 189.409 59.4748 189.314 61.1017 188.781C62.7756 188.216 64.9187 186.915 64.997 184.969C65.0595 183.417 64.4651 182.115 63.6985 180.813C62.932 179.511 60.6011 177.205 58.4267 177.032L58.411 177.017Z" fill="#E0634A"/>
<path d="M103.808 177.017C107.453 176.719 113.21 176.813 116.276 178.774C118.482 180.17 120.907 181.973 121.063 184.624C121.11 185.55 121.345 186.428 120.641 187.181C120.156 187.683 119.499 187.965 118.842 188.201C114.806 189.613 110.441 189.628 106.171 189.471C104.465 189.409 102.745 189.314 101.118 188.781C99.4438 188.216 97.3006 186.915 97.2224 184.969C97.1598 183.417 97.7543 182.115 98.5208 180.813C99.2874 179.511 101.618 177.205 103.793 177.032L103.808 177.017Z" fill="#E0634A"/>
<path d="M41.1092 80.203C46.0839 82.9481 52.1849 81.4109 54.7504 76.7678C57.3003 72.1248 55.3449 66.1171 50.3702 63.372C45.3955 60.627 39.2946 62.1642 36.729 66.8072C34.1791 71.4503 36.1346 77.458 41.1092 80.203Z" fill="#DF8040"/>
<path d="M116.136 75.1051C111.161 77.8502 105.06 76.313 102.495 71.6699C99.9447 67.0269 101.9 61.0192 106.875 58.2741C111.849 55.5291 117.95 57.0663 120.516 61.7093C123.066 66.3524 121.11 72.3601 116.136 75.1051Z" fill="#DF8040"/>
<path d="M57.7602 63.4057C61.4435 63.196 64.2161 59.2608 63.953 54.6162C63.69 49.9716 60.491 46.3764 56.8077 46.5861C53.1245 46.7958 50.3519 50.731 50.6149 55.3756C50.878 60.0202 54.077 63.6154 57.7602 63.4057Z" fill="#332F35"/>
<path d="M98.5534 60.3071C102.237 60.0974 105.009 56.1622 104.746 51.5176C104.483 46.8729 101.284 43.2777 97.6009 43.4875C93.9177 43.6972 91.145 47.6324 91.4081 52.277C91.6711 56.9216 94.8702 60.5168 98.5534 60.3071Z" fill="#332F35"/>
<path d="M79.2952 65.0819C82.6273 65.1289 85.8029 66.4779 85.7091 67.2622C85.8499 68.1563 82.3457 72.6895 79.2639 72.5954C76.1821 72.5013 72.9283 68.0465 72.7875 67.1524C72.7875 66.5877 76.0726 65.0348 79.2952 65.0819Z" fill="#867F41"/>
<path d="M79.0762 65.0191C82.3926 64.9564 85.9124 66.2112 85.8342 67.0112C86.0063 67.9053 82.4552 70.7915 79.3578 70.7759C76.276 70.7759 72.8813 68.1877 72.7249 67.2936C72.6936 66.7289 75.8536 65.0819 79.0762 65.0191Z" fill="#151316"/>
<path d="M79.1857 69.5366C82.5177 69.5366 86.0375 67.4661 85.9906 67.0896C86.0532 66.0544 82.7993 60.6427 79.2326 60.6898C75.9787 60.7211 72.6467 66.023 72.5997 67.0583C72.631 67.921 76.3542 69.521 79.2013 69.521L79.1857 69.5366Z" fill="#FBDD00"/>
</g>
<defs>
<clipPath id="clip0_3_11437">
<rect width="158" height="189" fill="white" transform="translate(0.326172 0.53418)"/>
</clipPath>
</defs>
</svg>
