<svg width="107" height="127" viewBox="0 0 107 127" fill="none" xmlns="http://www.w3.org/2000/svg">
<g clip-path="url(#clip0_3_11475)">
<path d="M105.555 90.0344C106.263 91.0697 106.83 92.8107 105.618 93.9557C105.287 94.2695 104.878 94.4577 104.484 94.6145C97.3997 97.4849 90.5671 96.3085 84.3327 94.7243C81.5619 94.0185 78.8383 93.2656 76.1304 92.4186C74.6663 91.9637 73.2021 91.4775 72.0686 90.505C68.9987 87.8699 69.2506 82.5839 69.7701 77.9567C70.3054 73.1727 70.4785 66.083 74.4459 61.7852C79.2318 56.6091 82.4277 61.7381 84.9309 64.389C88.4732 68.1377 91.8895 72.0434 95.1641 76.0745C98.8008 80.5448 102.249 85.2034 105.539 90.0031L105.555 90.0344Z" fill="#B6BAC9"/>
<path d="M74.4301 120.307C76.1146 120.087 77.7047 119.366 79.1216 118.456C86.4108 113.813 90.0632 102.692 90.6615 94.489C90.7402 93.4224 89.9215 92.8578 89.0871 92.3715C87.9851 91.7441 86.6627 91.352 85.4504 91.0383C82.9472 90.3952 80.3024 90.2383 77.7519 90.6461C76.5712 90.8344 75.4219 91.1481 74.3199 91.5716C71.9584 92.497 69.8645 93.8459 68.2429 95.8223C66.7631 97.6261 65.724 99.7907 65.2202 102.065C65.0943 102.661 64.9998 103.257 64.9368 103.853C64.5275 108.182 64.4016 113.107 67.1881 116.872C68.9671 119.256 71.4703 120.683 74.4301 120.291V120.307Z" fill="#BFC2D0"/>
<path d="M1.09755 91.8225C0.389103 92.8577 -0.177658 94.5988 1.03458 95.7438C1.36519 96.0575 1.77452 96.2458 2.1681 96.4026C9.25261 99.273 16.0852 98.0966 22.3196 96.5124C25.0904 95.8066 27.814 95.0537 30.5219 94.2067C31.986 93.7518 33.4501 93.2656 34.5837 92.2931C37.6536 89.6579 37.4017 84.372 36.8822 79.7448C36.3627 75.1177 36.1737 67.8711 32.2064 63.5733C27.4204 58.3971 24.2245 63.5262 21.7213 66.177C18.1791 69.9258 14.7628 73.8315 11.4882 77.8626C7.85145 82.3329 4.40366 86.9914 1.1133 91.7911L1.09755 91.8225Z" fill="#B6BAC9"/>
<path d="M34.348 120.323C32.6634 120.103 31.0734 119.382 29.6565 118.472C22.3673 113.829 18.7148 102.708 18.1166 94.5047C18.0379 93.4381 18.8565 92.8734 19.6909 92.3871C20.793 91.7597 22.1154 91.3676 23.3276 91.0539C25.8308 90.4108 28.4757 90.2539 31.0261 90.6618C32.2069 90.85 33.3561 91.1637 34.4582 91.5872C36.8197 92.5126 38.9136 93.8616 40.5351 95.8379C42.015 97.6417 43.0541 99.8063 43.5578 102.081C43.6838 102.677 43.7782 103.273 43.8412 103.869C44.2505 108.198 44.3765 113.123 41.5899 116.888C39.8109 119.272 37.3077 120.699 34.348 120.307V120.323Z" fill="#BFC2D0"/>
<path d="M17.3917 87.2582C17.3917 67.0556 31.419 48.4058 54.3414 48.4058C77.2637 48.4058 91.2281 67.1968 91.2281 87.3994C91.2281 107.602 84.5686 112.951 55.0813 113.798C31.7654 114.472 17.376 107.461 17.376 87.2582H17.3917Z" fill="#BFC2D0"/>
<path d="M15.2189 37.8966C14.1484 18.4625 30.4112 1.75769 51.5546 0.596976C72.6979 -0.563736 90.7083 14.2589 91.7788 33.7086C92.8494 53.1584 81.0419 64.044 55.5219 66.9301C29.5611 69.8789 16.2737 57.3464 15.2032 37.8966H15.2189Z" fill="#BFC2D0"/>
<path d="M15.2034 37.3944C15.2034 37.0964 15.1719 36.7827 15.1719 36.4846C15.1719 35.6376 15.1719 34.8063 15.2348 33.9593C15.2978 33.1123 15.3765 32.2967 15.4867 31.481C15.5969 30.6654 15.7544 29.8498 15.9276 29.0498C16.1007 28.2499 16.3054 27.4656 16.5415 26.6813C16.7777 25.8971 17.0453 25.1285 17.3287 24.3756C17.6121 23.6227 17.9427 22.8698 18.2891 22.1326C18.6354 21.3954 18.9975 20.6739 19.4068 19.968C19.8162 19.2622 20.2255 18.5563 20.6663 17.8819C21.1071 17.2074 21.5794 16.5329 22.0832 15.8742C22.587 15.2154 23.0908 14.588 23.6261 13.9605C24.1613 13.3331 24.7281 12.7371 25.3106 12.1567C25.8931 11.5764 26.5071 10.996 27.1211 10.447C27.7351 9.89805 28.3963 9.36475 29.0575 8.84714C29.7187 8.32952 30.4114 7.84328 31.1041 7.37272C31.7969 6.90216 32.521 6.44729 33.261 6.02379C34.0009 5.60028 34.7566 5.19246 35.5123 4.81602C36.268 4.43957 37.0709 4.07881 37.858 3.73373C38.6452 3.38865 39.4796 3.09063 40.2983 2.8083C41.1169 2.52596 41.9671 2.25931 42.8172 2.02403C43.6673 1.78875 44.549 1.58485 45.4149 1.39662C46.2807 1.2084 47.1939 1.06723 48.0912 0.941748C48.9886 0.816266 49.9175 0.722154 50.8306 0.659413C51.0667 0.643727 51.3186 0.628042 51.5548 0.612357C72.6981 -0.548355 90.7085 14.2743 91.779 33.724C91.8577 35.0416 91.8577 36.3592 91.8105 37.6767C91.7633 39.0257 91.6059 40.3432 91.4169 41.6922C91.4169 41.7392 91.3697 42.0059 91.3697 42.0059C91.3225 42.0059 91.2752 41.9431 91.2438 41.9117C91.1965 41.8176 91.0706 41.6294 91.0234 41.5667L90.7715 41.1589L90.2992 40.3746C89.9843 39.8727 89.6694 39.3707 89.3703 38.8688C88.961 38.21 88.5831 37.5355 88.1896 36.8768C87.7015 36.0768 87.2135 35.2612 86.7097 34.4769C86.1429 33.5829 85.5447 32.7045 84.9149 31.8418C84.238 30.9164 83.5295 30.0223 82.7738 29.1753C82.0182 28.3283 81.1523 27.4342 80.2549 26.65C79.3575 25.8657 78.3657 25.0971 77.3266 24.4383C76.2876 23.7795 75.154 23.1992 73.9733 22.7443C72.7925 22.2894 71.4701 21.9287 70.1634 21.7405C61.9769 20.5327 58.5291 29.0027 52.0586 29.6458C47.1781 30.1321 43.872 28.4067 40.0306 25.6775C37.2441 23.6854 33.7018 22.9325 30.3957 24.0462C26.9322 25.2069 23.5473 28.2812 21.5794 31.2928C19.6745 34.226 18.0372 36.6101 16.762 40.3903C16.2267 41.9902 15.9276 43.7156 15.9276 43.7156C15.8331 43.2136 15.4553 40.6256 15.3608 39.7785C15.2821 39.0257 15.2191 38.2571 15.2034 37.4885V37.3787V37.3944Z" fill="#A9ACB5"/>
<path d="M39.2907 118.19C36.8505 117.986 32.9776 118.064 30.931 119.35C29.4511 120.276 27.8295 121.483 27.7193 123.256C27.6879 123.868 27.5304 124.464 28.0027 124.966C28.3176 125.311 28.7741 125.483 29.215 125.64C31.9228 126.581 34.8511 126.597 37.7164 126.487C38.8656 126.44 40.0149 126.377 41.1012 126.017C42.219 125.64 43.6516 124.777 43.7146 123.476C43.7618 122.44 43.3525 121.578 42.8487 120.699C42.3449 119.821 40.7706 118.299 39.3065 118.174L39.2907 118.19Z" fill="#868686"/>
<path d="M69.7547 118.19C72.195 117.986 76.0678 118.064 78.1145 119.35C79.5943 120.276 81.2159 121.483 81.3261 123.256C81.3576 123.868 81.515 124.464 81.0427 124.966C80.7279 125.311 80.2713 125.483 79.8305 125.64C77.1226 126.581 74.1944 126.597 71.3291 126.487C70.1798 126.44 69.0306 126.377 67.9443 126.017C66.8265 125.64 65.3938 124.777 65.3309 123.476C65.2836 122.44 65.693 121.578 66.1967 120.699C66.7005 119.821 68.2749 118.299 69.739 118.174L69.7547 118.19Z" fill="#868686"/>
<path d="M38.998 42.6739C41.5155 42.5315 43.4108 39.8639 43.2314 36.7158C43.052 33.5676 40.8657 31.1309 38.3483 31.2734C35.8308 31.4158 33.9355 34.0833 34.1149 37.2315C34.2943 40.3797 36.4806 42.8163 38.998 42.6739Z" fill="#332F35"/>
<path d="M66.8254 40.5728C69.3429 40.4304 71.2382 37.7628 71.0588 34.6147C70.8793 31.4665 68.6931 29.0299 66.1757 29.1723C63.6582 29.3147 61.7629 31.9823 61.9423 35.1304C62.1217 38.2786 64.308 40.7153 66.8254 40.5728Z" fill="#332F35"/>
<path d="M53.6644 43.998C55.9314 44.0294 58.104 44.9391 58.041 45.4724C58.1355 46.0841 55.7582 49.1585 53.6486 49.08C51.539 49.0173 49.3192 46.0057 49.2247 45.394C49.2247 45.0175 51.4603 43.9666 53.6644 43.998Z" fill="#867F41"/>
<path d="M53.5069 43.9511C55.7739 43.904 58.1669 44.7667 58.1197 45.3C58.2299 45.9117 55.8212 47.8567 53.7115 47.8567C51.6019 47.8567 49.3034 46.1 49.1932 45.4882C49.1775 45.1118 51.3186 43.9824 53.5226 43.9511H53.5069Z" fill="#151316"/>
<path d="M53.5856 47.0254C55.8527 47.0254 58.2614 45.6294 58.2142 45.3784C58.2456 44.6726 56.0416 41.0179 53.6013 41.0493C51.3815 41.0806 49.1145 44.6726 49.0673 45.3627C49.083 45.9431 51.6334 47.0411 53.5699 47.0411L53.5856 47.0254Z" fill="#FBDD00"/>
</g>
<defs>
<clipPath id="clip0_3_11475">
<rect width="106" height="126" fill="white" transform="translate(0.326172 0.53418)"/>
</clipPath>
</defs>
</svg>
