<svg width="70" height="70" viewBox="0 0 70 70" fill="none" xmlns="http://www.w3.org/2000/svg">
<g id="bird-pet-face-new">
<g id="head">
<path id="OUTLINE" d="M35 5.83333C53.3949 5.83333 68.3068 19.8265 68.3068 37.0877C68.3068 43.7708 66.0716 49.964 62.264 55.0448C56.2377 63.0869 47.3287 64.8226 36.0558 64.8226C24.8137 64.8226 13.8167 63.1155 7.78543 55.1107C3.94788 50.0177 1.69312 43.7999 1.69312 37.0877C1.69312 19.8265 16.605 5.83333 35 5.83333Z" fill="#BFC2D0"/>
<path id="BODY" d="M35 5.83333C53.3949 5.83333 68.3068 19.8265 68.3068 37.0877C68.3068 43.7708 66.0716 49.964 62.264 55.0448C56.2377 63.0869 47.3287 64.8226 36.0558 64.8226C24.8137 64.8226 13.8167 63.1155 7.78543 55.1107C3.94788 50.0177 1.69312 43.7999 1.69312 37.0877C1.69312 19.8265 16.605 5.83333 35 5.83333Z" fill="#BFC2D0"/>
<g id="head patch">
<mask id="mask0_5539_46239" style="mask-type:alpha" maskUnits="userSpaceOnUse" x="1" y="5" width="68" height="60">
<g id="Group">
<path id="HEAD" d="M35 5.83333C53.395 5.83333 68.3069 19.8265 68.3069 37.0877C68.3069 43.7708 66.0716 49.964 62.2641 55.0448C56.2377 63.0869 47.3287 64.8226 36.0559 64.8226C24.8137 64.8226 13.8168 63.1155 7.78549 55.1107C3.94794 50.0177 1.69318 43.7999 1.69318 37.0877C1.69318 19.8265 16.6051 5.83333 35 5.83333Z" fill="#BEBFCD"/>
</g>
</mask>
<g mask="url(#mask0_5539_46239)">
<path id="HAIR" d="M37.2391 -41.2093C-28.9256 -42.3824 -41.9842 -4.74692 -49.1034 12.7548C-54.7345 26.5978 -47.2264 47.9488 -35.3778 47.1276C-23.5292 46.3064 -24.9369 47.3622 -16.9596 47.3622C-8.98231 47.3622 -0.653074 46.4237 1.69319 41.7312C4.03946 37.0386 6.50303 28.8267 15.1842 25.7766C23.8654 22.7264 29.14 31.7595 35.2448 31.7595C41.5797 31.7595 47.1239 22.6577 54.3668 25.8939C59.8806 28.3575 65.9809 36.9213 68.2098 41.9658C70.1211 46.2914 77.7122 49.3565 87.0972 49.3565C96.4823 49.3565 99.5324 49.8258 110.325 49.8258C121.118 49.8258 131.324 35.9828 125.693 17.9166C120.062 -0.14965 103.404 -40.0361 37.2391 -41.2093Z" fill="#9699A3"/>
</g>
</g>
<path id="cheek" fill-rule="evenodd" clip-rule="evenodd" d="M20.8296 45.9683C20.8296 42.6686 17.9908 39.9933 14.4887 39.9933C10.9866 39.9933 8.14783 42.6686 8.14783 45.9683C8.14783 49.268 10.9866 51.9434 14.4887 51.9434C17.9908 51.9434 20.8296 49.268 20.8296 45.9683ZM61.9256 45.9985C61.9256 42.6988 59.0868 40.0222 55.5847 40.0222C52.0826 40.0222 49.2438 42.6988 49.2438 45.9985C49.2438 49.2981 52.0826 51.9735 55.5847 51.9735C59.0868 51.9735 61.9256 49.2981 61.9256 45.9985Z" fill="#E0634A"/>
<g id="beak">
<path id="Vector" d="M35.0266 44.4567C37.1411 44.4749 39.1714 45.3262 39.1141 45.826C39.2043 46.3951 36.9923 49.2759 35.0291 49.2212C33.0658 49.1664 30.9868 46.3549 30.8965 45.7858C30.8856 45.4295 32.9793 44.4397 35.0266 44.4567Z" fill="#867F41"/>
<path id="Vector_2" d="M34.8877 44.4131C37.0009 44.3668 39.2336 45.1533 39.1909 45.6557C39.2982 46.2239 37.1545 47.8384 35.1901 47.8433C33.2256 47.8481 30.9661 46.4373 30.8588 45.8691C30.8368 45.5118 32.8403 44.4582 34.8877 44.4131Z" fill="#151316"/>
<path id="Vector_3" d="M34.9718 47.2786C37.0911 47.2701 39.3214 45.9519 39.2884 45.7129C39.3226 45.0568 37.2423 41.6389 34.973 41.6742C32.9 41.7059 30.799 45.0764 30.7648 45.7324C30.7819 46.2775 33.161 47.2859 34.9718 47.2786Z" fill="#FBDD00"/>
</g>
<path id="eyes" fill-rule="evenodd" clip-rule="evenodd" d="M27.0405 37.0972C27.0785 34.3297 25.3941 32.0592 23.2817 32.0303C21.1693 32.0013 19.4234 34.2248 19.3855 36.9923C19.3475 39.7598 21.0319 42.0303 23.1443 42.0593C25.2567 42.0882 27.0026 39.8647 27.0405 37.0972ZM50.5971 37.1377C50.635 34.3702 48.9506 32.0998 46.8382 32.0708C44.7258 32.0419 42.9799 34.2654 42.942 37.0329C42.9041 39.8004 44.5884 42.0709 46.7008 42.0998C48.8132 42.1287 50.5591 39.9052 50.5971 37.1377Z" fill="#332F35"/>
</g>
</g>
</svg>
