<svg fill="none" height="31" viewBox="0 0 28 31" width="28" xmlns="http://www.w3.org/2000/svg" xmlns:xlink="http://www.w3.org/1999/xlink"><linearGradient id="a" gradientUnits="userSpaceOnUse" x1="19.9328" x2="9.19984" y1="-.000001" y2="10.7329"><stop offset="0" stop-color="#6ebdca"/><stop offset="1" stop-color="#77f3c9"/></linearGradient><linearGradient id="b" gradientUnits="userSpaceOnUse" x1="4.57938" x2="7.50282" y1="13.2787" y2="24.7476"><stop offset="0" stop-color="#77f3c9"/><stop offset=".995054" stop-color="#fabbbb"/></linearGradient><linearGradient id="c" gradientUnits="userSpaceOnUse" x1="20.9958" x2="10.4264" y1="23.3982" y2="27.2212"><stop offset="0" stop-color="#f8ce69"/><stop offset="1" stop-color="#fefc9f"/></linearGradient><linearGradient id="d" gradientUnits="userSpaceOnUse" x1="21.4659" x2="9.19971" y1="8.433" y2="21.4658"><stop offset="0" stop-color="#ff98aa"/><stop offset=".875" stop-color="#f9cf6a"/></linearGradient><linearGradient id="e" gradientUnits="userSpaceOnUse" x1="19.166" x2="11.4996" y1="7.66637" y2="18.3993"><stop offset="0" stop-color="#75dbf6"/><stop offset="1" stop-color="#c7baf9"/></linearGradient><path d="m13.033 9.96628 7.6664-9.96628-14.5661 3.83318z" fill="url(#a)"/><path d="m0 20.6993 6.13309-16.86605 6.89971 6.1331-6.13307 19.93255z" fill="url(#b)"/><path d="m6.8999 29.8987 2.29991-8.433 10.73289-3.0665 4.5998 1.5332s-4.5146 8.433-6.133 9.1997c-4.0586 1.9225-11.4996.7666-11.4996.7666z" fill="url(#c)"/><path d="m13.0329 9.96628 7.6664-9.96628 6.8997 13.7995-3.0666 6.1331-15.33269 1.5332z" fill="url(#d)"/><path d="m13.0329 9.96628 7.6664-9.96628 3.8331 7.66637-15.33269 13.79943z" fill="url(#e)"/></svg>